# Blender v2.75 (sub 0) OBJ File: ''
# www.blender.org
mtllib flatgrass_BSP_Scaled.mtl
o 05_Barrier
v 149.750061 -118.000038 9.996548
v 149.749969 -117.999786 -0.003435
v 150.249969 -117.999786 -0.003435
v 150.250061 -118.000038 9.996548
v 149.749939 117.999969 -0.003320
v 150.249939 117.999969 -0.003320
v 149.750031 117.999718 9.996662
v 150.250031 117.999718 9.996662
vt 0.000000 0.000000
vt 1.000000 0.000000
vt 1.000000 1.000000
vt 0.000000 1.000000
vn 0.000000 -1.000000 -0.000000
vn 0.000000 0.000000 -1.000000
vn 0.000000 1.000000 0.000000
vn 0.000000 -0.000000 1.000000
vn 1.000000 0.000000 -0.000000
vn -1.000000 -0.000000 0.000000
usemtl Material.002
s 1
f 1/1/1 2/2/1 3/3/1 4/4/1
f 2/1/2 5/2/2 6/3/2 3/4/2
f 5/1/3 7/2/3 8/3/3 6/4/3
f 7/1/4 1/2/4 4/3/4 8/4/4
f 4/1/5 3/2/5 6/3/5 8/4/5
f 7/1/6 5/2/6 2/3/6 1/4/6
o 04_Barrier
v -150.000000 118.249680 9.996685
v -150.000000 118.250229 -0.003316
v -150.000000 117.750229 -0.003316
v -150.000000 117.749680 9.996685
v 150.000000 118.250229 -0.003316
v 150.000000 117.750229 -0.003316
v 150.000000 118.249680 9.996685
v 150.000000 117.749680 9.996685
vt 0.000000 0.000000
vt 1.000000 0.000000
vt 1.000000 1.000000
vt 0.000000 1.000000
vn -1.000000 0.000000 0.000000
vn 0.000000 0.000000 -1.000000
vn 1.000000 0.000000 0.000000
vn 0.000000 0.000000 1.000000
vn 0.000000 -1.000000 -0.000100
vn 0.000000 1.000000 0.000100
usemtl Material.002
s 1
f 9/5/7 10/6/7 11/7/7 12/8/7
f 10/5/8 13/6/8 14/7/8 11/8/8
f 13/5/9 15/6/9 16/7/9 14/8/9
f 15/5/10 9/6/10 12/7/10 16/8/10
f 12/5/11 11/6/11 14/7/11 16/8/11
f 15/5/12 13/6/12 10/7/12 9/8/12
o 01_Ground
v -250.000000 -250.000000 0.249560
v -250.000000 250.000000 0.250440
v -250.000000 250.000000 -0.249560
v -250.000000 -250.000000 -0.250440
v 250.000000 250.000000 0.250440
v 250.000000 250.000000 -0.249560
v 250.000000 -250.000000 0.249560
v 250.000000 -250.000000 -0.250440
vt 0.000000 0.000000
vt 1.000000 0.000000
vt 1.000000 1.000000
vt 0.000000 1.000000
vn -1.000000 0.000000 0.000000
vn 0.000000 1.000000 0.000000
vn 1.000000 0.000000 0.000000
vn 0.000000 -1.000000 0.000000
vn 0.000000 0.000000 -1.000000
vn 0.000000 -0.000000 1.000000
usemtl Material.001
s 1
f 17/9/13 18/10/13 19/11/13 20/12/13
f 18/9/14 21/10/14 22/11/14 19/12/14
f 21/9/15 23/10/15 24/11/15 22/12/15
f 23/9/16 17/10/16 20/11/16 24/12/16
f 20/9/17 19/10/17 22/11/17 24/12/17
f 23/9/18 21/10/18 18/11/18 17/12/18
o 03_Barrier
v -150.249939 -118.000038 9.996548
v -150.250031 -117.999786 -0.003435
v -149.750031 -117.999786 -0.003435
v -149.749939 -118.000038 9.996548
v -150.250061 117.999969 -0.003320
v -149.750061 117.999969 -0.003320
v -150.249969 117.999718 9.996662
v -149.749969 117.999718 9.996662
vt 0.000000 0.000000
vt 1.000000 0.000000
vt 1.000000 1.000000
vt 0.000000 1.000000
vn 0.000000 -1.000000 -0.000000
vn 0.000000 0.000000 -1.000000
vn 0.000000 1.000000 0.000000
vn 0.000000 -0.000000 1.000000
vn 1.000000 0.000000 -0.000000
vn -1.000000 -0.000000 0.000000
usemtl Material.002
s 1
f 25/13/19 26/14/19 27/15/19 28/16/19
f 26/13/20 29/14/20 30/15/20 27/16/20
f 29/13/21 31/14/21 32/15/21 30/16/21
f 31/13/22 25/14/22 28/15/22 32/16/22
f 28/13/23 27/14/23 30/15/23 32/16/23
f 31/13/24 29/14/24 26/15/24 25/16/24
o 02_Barrier
v -150.000000 -117.750320 9.996560
v -150.000000 -117.749771 -0.003439
v -150.000000 -118.249771 -0.003439
v -150.000000 -118.250320 9.996560
v 150.000000 -117.749771 -0.003439
v 150.000000 -118.249771 -0.003439
v 150.000000 -117.750320 9.996560
v 150.000000 -118.250320 9.996560
vt 0.000000 0.000000
vt 1.000000 0.000000
vt 1.000000 1.000000
vt 0.000000 1.000000
vn -1.000000 0.000000 0.000000
vn 0.000000 0.000000 -1.000000
vn 1.000000 0.000000 0.000000
vn 0.000000 0.000000 1.000000
vn 0.000000 -1.000000 -0.000100
vn 0.000000 1.000000 0.000100
usemtl Material.002
s 1
f 33/17/25 34/18/25 35/19/25 36/20/25
f 34/17/26 37/18/26 38/19/26 35/20/26
f 37/17/27 39/18/27 40/19/27 38/20/27
f 39/17/28 33/18/28 36/19/28 40/20/28
f 36/17/29 35/18/29 38/19/29 40/20/29
f 39/17/30 37/18/30 34/19/30 33/20/30
